<svg xmlns="http://www.w3.org/2000/svg" width="1000" height="250" viewBox="0 0 1000 250" role="img" aria-labelledby="title description">
  <title id="title">Náhled karty Custom History Bar</title>
  <desc id="description">Tmavá karta s barevným pruhem stavů Netatmo Indexu zdraví, časovou osou a legendou.</desc>
  <rect width="1000" height="250" fill="#111111"/>
  <rect x="35" y="30" width="930" height="190" rx="16" fill="#242424"/>
  <text x="58" y="67" fill="#f1f1f1" font-family="Arial, sans-serif" font-size="20" font-weight="600">Index zdraví v ložnici</text>
  <text x="942" y="67" fill="#b5b5b5" font-family="Arial, sans-serif" font-size="17" text-anchor="end">V pořádku</text>
  <clipPath id="bar-clip">
    <rect x="58" y="87" width="884" height="38" rx="5"/>
  </clipPath>
  <g clip-path="url(#bar-clip)">
    <rect x="58" y="87" width="205" height="38" fill="#84a5d4"/>
    <rect x="263" y="87" width="195" height="38" fill="#41c49d"/>
    <rect x="458" y="87" width="180" height="38" fill="#f8e71e"/>
    <rect x="638" y="87" width="160" height="38" fill="#fdc46f"/>
    <rect x="798" y="87" width="144" height="38" fill="#84a5d4"/>
  </g>
  <g fill="#ffffff" font-family="Arial, sans-serif" font-size="14" font-weight="600">
    <text x="68" y="112">V pořádku</text>
    <text x="273" y="112">Jemné</text>
    <text x="468" y="112">Přijatelné</text>
    <text x="648" y="112">Špatné</text>
    <text x="808" y="112">V pořádku</text>
  </g>
  <g fill="#b5b5b5" fill-opacity="0.55" font-family="Arial, sans-serif" font-size="11">
    <text x="263" y="142" text-anchor="middle">21:34</text>
    <text x="458" y="142" text-anchor="middle">02:51</text>
    <text x="638" y="142" text-anchor="middle">07:45</text>
    <text x="798" y="142" text-anchor="middle">12:06</text>
  </g>
  <g fill="#b5b5b5" font-family="Arial, sans-serif" font-size="13">
    <text x="95" y="160" text-anchor="middle">16:00</text>
    <text x="242" y="160" text-anchor="middle">20:00</text>
    <text x="389" y="160" text-anchor="middle">16. 7.</text>
    <text x="537" y="160" text-anchor="middle">4:00</text>
    <text x="684" y="160" text-anchor="middle">8:00</text>
    <text x="831" y="160" text-anchor="middle">12:00</text>
  </g>
  <g font-family="Arial, sans-serif" font-size="13" fill="#b5b5b5">
    <rect x="58" y="174" width="13" height="13" rx="2" fill="#84a5d4"/><text x="78" y="185">V pořádku</text>
    <rect x="175" y="174" width="13" height="13" rx="2" fill="#41c49d"/><text x="195" y="185">Jemné</text>
    <rect x="275" y="174" width="13" height="13" rx="2" fill="#f8e71e"/><text x="295" y="185">Přijatelné</text>
    <rect x="397" y="174" width="13" height="13" rx="2" fill="#fdc46f"/><text x="417" y="185">Špatné</text>
    <rect x="504" y="174" width="13" height="13" rx="2" fill="#ff6669"/><text x="524" y="185">Nezdravé</text>
  </g>
</svg>
