<svg xmlns="http://www.w3.org/2000/svg" width="1000" height="250" viewBox="0 0 1000 250" role="img" aria-labelledby="title description">
  <title id="title">Náhled karty Custom History Bar</title>
  <desc id="description">Tmavá karta s barevným pruhem stavů Netatmo Indexu zdraví, časovou osou a legendou.</desc>
  <rect width="1000" height="250" fill="#111111"/>
  <rect x="35" y="30" width="930" height="190" rx="16" fill="#242424"/>
  <text x="58" y="67" fill="#f1f1f1" font-family="Arial, sans-serif" font-size="20" font-weight="600">Index zdraví v ložnici</text>
  <text x="942" y="67" fill="#b5b5b5" font-family="Arial, sans-serif" font-size="17" text-anchor="end">V pořádku</text>
  <clipPath id="bar-clip">
    <rect x="58" y="87" width="884" height="38" rx="5"/>
  </clipPath>
  <g clip-path="url(#bar-clip)">
    <rect x="58" y="87" width="205" height="38" fill="#2e7d32"/>
    <rect x="263" y="87" width="195" height="38" fill="#7cb342"/>
    <rect x="458" y="87" width="180" height="38" fill="#f9a825"/>
    <rect x="638" y="87" width="160" height="38" fill="#ef6c00"/>
    <rect x="798" y="87" width="144" height="38" fill="#2e7d32"/>
  </g>
  <g fill="#ffffff" font-family="Arial, sans-serif" font-size="14" font-weight="600">
    <text x="68" y="112">V pořádku</text>
    <text x="273" y="112">Jemné</text>
    <text x="468" y="112">Přijatelné</text>
    <text x="648" y="112">Špatné</text>
    <text x="808" y="112">V pořádku</text>
  </g>
  <g fill="#b5b5b5" font-family="Arial, sans-serif" font-size="13">
    <text x="58" y="146">15:00</text>
    <text x="279" y="146" text-anchor="middle">21:00</text>
    <text x="500" y="146" text-anchor="middle">03:00</text>
    <text x="721" y="146" text-anchor="middle">09:00</text>
    <text x="942" y="146" text-anchor="end">15:00</text>
  </g>
  <g font-family="Arial, sans-serif" font-size="13" fill="#b5b5b5">
    <rect x="58" y="174" width="13" height="13" rx="2" fill="#2e7d32"/><text x="78" y="185">V pořádku</text>
    <rect x="175" y="174" width="13" height="13" rx="2" fill="#7cb342"/><text x="195" y="185">Jemné</text>
    <rect x="275" y="174" width="13" height="13" rx="2" fill="#f9a825"/><text x="295" y="185">Přijatelné</text>
    <rect x="397" y="174" width="13" height="13" rx="2" fill="#ef6c00"/><text x="417" y="185">Špatné</text>
    <rect x="504" y="174" width="13" height="13" rx="2" fill="#c62828"/><text x="524" y="185">Nezdravé</text>
  </g>
</svg>
